<svg xmlns="http://www.w3.org/2000/svg" xmlns:bx="https://boxy-svg.com" xmlns:xlink="http://www.w3.org/1999/xlink" id="svg1" width="70.791" height="69.806" version="1.1" viewBox="0 0 18.73 18.47"><defs id="defs1"><linearGradient xlink:href="#gradient-1" id="gradient-1-0" x1="56.877" x2="5.289" y1="26.712" y2="49.882" gradientUnits="userSpaceOnUse"/><linearGradient bx:pinned="true" id="gradient-1"><stop id="stop1" offset=".397" style="stop-color:#009d07"/><stop id="stop2" offset="1" style="stop-color:#fff;stop-opacity:1"/></linearGradient></defs><g id="layer1" transform="translate(-142.542 -159.055)"><g id="g2" transform="translate(142.215 158.973)scale(.30378)"><path id="path2" fill="#fff" d="M46.103 27.444c.637-4.258-2.605-6.547-7.038-8.074l1.438-5.768-3.511-.875-1.4 5.616c-.923-.23-1.871-.447-2.813-.662l1.41-5.653-3.509-.875-1.439 5.766c-.764-.174-1.514-.346-2.242-.527l.004-.018-4.842-1.209-.934 3.75s2.605.597 2.55.634c1.422.355 1.679 1.296 1.636 2.042l-1.638 6.571c.098.025.225.061.365.117l-.371-.092-2.296 9.205c-.174.432-.615 1.08-1.609.834.035.051-2.552-.637-2.552-.637l-1.743 4.019 4.569 1.139c.85.213 1.683.436 2.503.646l-1.453 5.834 3.507.875 1.439-5.772c.958.26 1.888.5 2.798.726l-1.434 5.745 3.511.875 1.453-5.823c5.987 1.133 10.489.676 12.384-4.739 1.527-4.36-.076-6.875-3.226-8.515 2.294-.529 4.022-2.038 4.483-5.155m-8.022 11.249c-1.085 4.36-8.426 2.003-10.806 1.412l1.928-7.729c2.38.594 10.012 1.77 8.878 6.317m1.086-11.312c-.99 3.966-7.1 1.951-9.082 1.457l1.748-7.01c1.982.494 8.365 1.416 7.334 5.553"/></g><path id="path4" d="M159.523 164.699c-2.77-5.94-10.932-6.654-14.69-1.286a8.52 8.52 0 0 0-1.512 5.577" style="fill:none;stroke:#fff;stroke-width:1.5px;stroke-linecap:round;stroke-dasharray:none;stroke-opacity:1"/><path id="polyline2" d="m3.296 45.317 17.177-13.199 9.536 5.431 30.536-19.054" style="fill:none;stroke:url(#gradient-1-0);stroke-width:5.66929px;stroke-linecap:round;stroke-dasharray:none" transform="matrix(.26458 0 0 .26458 143.467 159.854)"/><path id="path3" d="M144.292 171.881c2.77 5.94 10.932 6.654 14.69 1.286a8.52 8.52 0 0 0 1.512-5.577" style="fill:none;stroke:#fff;stroke-width:1.5px;stroke-linecap:round;stroke-dasharray:none;stroke-opacity:1"/></g></svg>