<svg width="67.12" height="66.248" viewBox="0 0 17.759 17.528" version="1.1" id="svg1" xmlns:xlink="http://www.w3.org/1999/xlink" xmlns="http://www.w3.org/2000/svg" xmlns:bx="https://boxy-svg.com"><defs id="defs1"><linearGradient id="gradient-1-0" gradientUnits="userSpaceOnUse" x1="31.92" y1="18.495" x2="31.92" y2="45.317" xlink:href="#gradient-1"/><linearGradient id="gradient-1" bx:pinned="true"><stop offset=".296" style="stop-color:#009d07" id="stop1"/><stop offset="1" id="stop2"/></linearGradient></defs><g id="layer1" transform="translate(-143.028 -159.526)"><g transform="translate(142.215 158.973) scale(.30378)" id="g2"><path fill="#fff" d="M46.103 27.444c.637-4.258-2.605-6.547-7.038-8.074l1.438-5.768-3.511-.875-1.4 5.616c-.923-.23-1.871-.447-2.813-.662l1.41-5.653-3.509-.875-1.439 5.766c-.764-.174-1.514-.346-2.242-.527l.004-.018-4.842-1.209-.934 3.75s2.605.597 2.55.634c1.422.355 1.679 1.296 1.636 2.042l-1.638 6.571c.098.025.225.061.365.117l-.371-.092-2.296 9.205c-.174.432-.615 1.08-1.609.834.035.051-2.552-.637-2.552-.637l-1.743 4.019 4.569 1.139c.85.213 1.683.436 2.503.646l-1.453 5.834 3.507.875 1.439-5.772c.958.26 1.888.5 2.798.726l-1.434 5.745 3.511.875 1.453-5.823c5.987 1.133 10.489.676 12.384-4.739 1.527-4.36-.076-6.875-3.226-8.515 2.294-.529 4.022-2.038 4.483-5.155zm-8.022 11.249c-1.085 4.36-8.426 2.003-10.806 1.412l1.928-7.729c2.38.594 10.012 1.77 8.878 6.317zm1.086-11.312c-.99 3.966-7.1 1.951-9.082 1.457l1.748-7.01c1.982.494 8.365 1.416 7.334 5.553z" id="path2"/></g><path style="fill:none;stroke:url(#gradient-1-0);stroke-width:2px;stroke-linecap:round" id="polyline2" transform="matrix(.26458 0 0 .26458 143.467 159.854)" d="m3.296 45.317 17.177-13.199 9.536 5.431 30.536-19.054"/><path style="fill:none;stroke:#000;stroke-width:.529167px;stroke-linecap:round" d="M144.292 171.881c2.77 5.94 10.932 6.654 14.69 1.286a8.516 8.516 0 0 0 1.512-5.577" id="path3"/><path style="fill:none;stroke:#000;stroke-width:.529167px;stroke-linecap:round" d="M159.523 164.699c-2.77-5.94-10.932-6.654-14.69-1.286a8.516 8.516 0 0 0-1.512 5.577" id="path4"/></g></svg>